<svg xmlns="http://www.w3.org/2000/svg" width="60" height="80" fill="#23302C" viewBox="0 0 36 48" alt="KGKlogo"><g clip-path="url(#hover-kgk-icon_svg__a)" clip-rule="evenodd"><path d="M17.923 39.348c-7.64 0-14.64-4.516-17.83-11.504L0 27.641V11.709l.093-.204C3.28 4.517 10.283 0 17.923 0a19.567 19.567 0 0 1 10.762 3.234 19.67 19.67 0 0 1 7.23 8.63l.084.197V27.29l-.084.197a19.67 19.67 0 0 1-7.23 8.63 19.567 19.567 0 0 1-10.762 3.233v-.002ZM2.043 27.19c2.898 6.149 9.11 10.103 15.88 10.103a17.528 17.528 0 0 0 9.554-2.838 17.618 17.618 0 0 0 6.48-7.595V12.489a17.616 17.616 0 0 0-6.48-7.596 17.526 17.526 0 0 0-9.554-2.837c-6.77 0-12.982 3.96-15.88 10.106v15.029Z"></path><path d="M31.444 13.449a14.806 14.806 0 0 0-1.668-2.777l-.746-.98v7.236a3.381 3.381 0 0 1-1.928-1.19 3.403 3.403 0 0 1-.75-2.144V7.402l-.185-.124a14.941 14.941 0 0 0-1.67-.955l-.6-.294v7.565a5.928 5.928 0 0 0 2.284 4.65 5.895 5.895 0 0 0-2.284 4.648v10.433l.6-.293a15.543 15.543 0 0 0 1.67-.955l.186-.123v-9.062c0-.779.265-1.534.752-2.14a3.391 3.391 0 0 1 1.925-1.191v10.107l.746-.984a14.766 14.766 0 0 0 1.668-2.777l.033-12.322-.033-.136ZM19.478 4.923H16.52c-1.307 0-2.365 1.396-2.365 3.113V31.32c0 1.715 1.058 3.113 2.365 3.113h2.958c1.305 0 2.369-1.395 2.369-3.113V19.573l-4.96-.015.071.48c.071.501.318.96.696 1.296a2.12 2.12 0 0 0 1.367.534h.326v9.452c.004.209-.04.415-.131.603h-2.432a1.321 1.321 0 0 1-.13-.603V8.035a1.32 1.32 0 0 1 .13-.605h2.432c.09.188.136.395.131.604v6.977h2.5V8.035c0-1.716-1.064-3.112-2.369-3.112ZM9.833 7.278l-.188.124v6.192a3.41 3.41 0 0 1-.748 2.145 3.388 3.388 0 0 1-1.927 1.193V9.696l-.746.984a14.741 14.741 0 0 0-1.668 2.777l-.035 12.31.035.135a14.688 14.688 0 0 0 1.668 2.776l.746.981v-10.1a3.387 3.387 0 0 1 1.925 1.19c.487.608.752 1.364.75 2.143v9.063l.186.12c.536.355 1.093.675 1.67.957l.6.293V22.892a5.913 5.913 0 0 0-2.284-4.646 5.916 5.916 0 0 0 2.284-4.651V6.028l-.6.294c-.576.282-1.133.601-1.668.955ZM3.385 44.215c.298 0 .73.122.896.297-.007.196-.13.482-.396.4a1.687 1.687 0 0 0-.53-.118c-.277 0-.458.128-.458.337 0 .228.175.352.716.643.521.271.805.49.805 1.043 0 .734-.653 1.135-1.341 1.138a1.601 1.601 0 0 1-.864-.23c-.114-.072-.158-.143-.158-.23 0-.126.114-.39.168-.42.212.136.562.291.848.291.286 0 .53-.117.53-.392 0-.205-.09-.336-.646-.616-.706-.346-.839-.726-.839-1.115s.282-1.027 1.258-1.027l.011-.001ZM5.583 45.047c0-.38 0-.615-.015-.723.12-.017.586-.045.724-.045.111 0 .13.053.13.317v2.55c0 .4.01.588.015.7a5.242 5.242 0 0 1-.713.046c-.103 0-.141-.015-.141-.112v-2.733ZM7.772 44.353v-.033c.119-.016.727-.046.838-.046a.223.223 0 0 1 .164.101c.182.282.586.934.902 1.482.24.405.407.678.55.974a5.038 5.038 0 0 1-.04-.792l.007-1.593c0-.13.044-.153.127-.153.197-.017.43-.023.572-.023-.01.245-.018.575-.018 1.048l-.005 2.505a3.462 3.462 0 0 1-.65.098.18.18 0 0 1-.177-.098c-.243-.358-.403-.643-.856-1.39-.329-.535-.45-.831-.687-1.294.039.505.033.794.033 1.085l-.006 1.503c0 .11-.035.125-.141.143a3.44 3.44 0 0 1-.557.023c.008-.226.016-.558.018-1.037v-2.372l-.074-.13ZM15.129 47.189c-.036.28-.105.429-.208.54-.249.14-.53.211-.815.205-1.328 0-2.033-.73-2.033-1.824 0-1.197.923-1.912 2.06-1.915.523 0 .966.177 1.058.285.005.253-.146.488-.407.416a1.904 1.904 0 0 0-.658-.124c-.66 0-1.16.413-1.165 1.28 0 .705.466 1.276 1.327 1.276.278-.002.553-.053.813-.152l.027.013ZM16.24 45.077c0-.274 0-.463-.017-.72.253-.05.51-.076.767-.078h1.37c-.042.325-.126.455-.194.536-.097.04-.33.04-.582.04h-.503v.87h1.22c-.07.49-.19.575-.396.575l-.827-.003v.976c.148.02.298.03.448.027.217 0 .684 0 .987-.019l.01.013c-.063.297-.183.457-.336.553-.269.028-.54.038-.81.03a7.471 7.471 0 0 1-1.045-.054l-.09-.116-.003-2.63ZM23.147 44.422c0 .38.012 2.81.012 3.273 0 .114-.047.14-.159.148-.229.018-.583.024-.689.024.004-.303.01-1.551.013-2.686a7.014 7.014 0 0 1-.74.155l-.014-.03.146-.443c.475-.13.941-.285 1.398-.467l.033.026ZM24.87 47.56c.335-.05.762-.17 1.075-.474.36-.349.439-.834.442-1.296 0-.521-.15-.886-.47-.885-.265 0-.418.282-.418.567 0 .438.28.581.503.581a.907.907 0 0 0 .235-.041c.007.137-.074.394-.167.468-.093.075-.268.12-.453.12-.52 0-.922-.356-.922-1.003 0-.625.475-1.203 1.279-1.203.848 0 1.252.682 1.25 1.45 0 .588-.169 1.114-.642 1.582-.456.44-.98.573-1.258.573a.445.445 0 0 1-.269-.065.493.493 0 0 1-.204-.355l.019-.02ZM29.498 44.386c1.058 0 1.202 1.128 1.202 1.706 0 1.178-.48 1.798-1.294 1.798-.638 0-1.245-.41-1.241-1.72 0-.863.347-1.779 1.328-1.784h.005Zm-.06.517c-.395 0-.448.804-.45 1.216 0 .98.241 1.262.458 1.262.156 0 .433-.133.436-1.286 0-.97-.218-1.191-.436-1.189l-.007-.003ZM31.72 46.151c.109-.597.341-1.506.404-1.636.221.01 1.557-.078 1.72-.136l.009.023c-.04.23-.131.47-.263.566-.147.11-.504.144-1.043.168a6.034 6.034 0 0 0-.137.568c.286.031.569.082.848.151.553.173.809.428.807.949 0 .74-.723 1.177-1.515 1.177-.331 0-.52-.052-.622-.128a.69.69 0 0 1-.179-.462l.03-.031c.193.059.393.09.595.09.44 0 .852-.168.852-.567 0-.241-.155-.36-.38-.434a6.849 6.849 0 0 0-1.037-.164l-.089-.133ZM34.423 0c.27 0 .533.07.768.202.246.131.448.331.583.575a1.572 1.572 0 0 1 0 1.565 1.558 1.558 0 0 1-2.907-.783c0-.274.072-.544.209-.782.134-.243.335-.443.58-.575A1.57 1.57 0 0 1 34.422 0Zm0 .31c-.215 0-.428.056-.616.16a1.159 1.159 0 0 0-.464.463 1.257 1.257 0 0 0 0 1.256 1.247 1.247 0 0 0 2.17 0 1.26 1.26 0 0 0 0-1.256 1.158 1.158 0 0 0-.465-.463 1.282 1.282 0 0 0-.617-.16h-.008Zm-.704 2.089h.335v-.682h.084a.365.365 0 0 1 .23.071c.097.098.175.214.23.34l.136.27h.42l-.194-.336a4.586 4.586 0 0 0-.123-.202.828.828 0 0 0-.111-.126.398.398 0 0 0-.116-.062.53.53 0 0 0 .326-.158.437.437 0 0 0 .118-.307.463.463 0 0 0-.217-.395.634.634 0 0 0-.259-.067c-.037 0-.213 0-.527-.004h-.336v1.655l.004.003Zm.335-.945h.135c.12.005.241-.002.36-.022a.208.208 0 0 0 .15-.204.198.198 0 0 0-.04-.122.22.22 0 0 0-.112-.076 1.633 1.633 0 0 0-.358-.023h-.135v.447Z"></path></g><defs><clipPath id="hover-kgk-icon_svg__a"><path fill="#fff" d="M0 0h36v48H0z"></path></clipPath></defs></svg>