<svg width="42" height="42" viewBox="0 0 42 42" fill="none" xmlns="http://www.w3.org/2000/svg">
<path d="M20.9816 41.9815C16.8304 41.9797 12.7728 40.7471 9.32213 38.4395C5.87143 36.1319 3.18237 32.8529 1.59504 29.0172C0.00770604 25.1815 -0.406453 20.9612 0.404521 16.89C1.2155 12.8188 3.21527 9.07948 6.15125 6.14479C9.08723 3.2101 12.8274 1.21186 16.899 0.402674C20.9705 -0.406513 25.1907 0.00968755 29.0257 1.5987C32.8607 3.18771 36.1384 5.87819 38.4445 9.3299C40.7506 12.7816 41.9814 16.8396 41.9814 20.9908C41.9741 26.5572 39.7591 31.8935 35.8221 35.8287C31.8852 39.7639 26.5481 41.9767 20.9816 41.9815V41.9815ZM20.9816 1.5158C17.1302 1.51762 13.3658 2.66138 10.1644 4.80243C6.96297 6.94347 4.46827 9.98565 2.99567 13.5444C1.52306 17.1031 1.1386 21.0186 1.89109 24.7958C2.64358 28.573 4.49922 32.0422 7.22321 34.7649C9.9472 37.4877 13.4173 39.3415 17.1948 40.0922C20.9723 40.8429 24.8877 40.4567 28.4457 38.9824C32.0038 37.5081 35.0447 35.012 37.1843 31.8095C39.3238 28.6071 40.4658 24.8422 40.4658 20.9908C40.4585 15.8264 38.4031 10.8757 34.7504 7.22474C31.0977 3.57379 26.1461 1.52068 20.9816 1.5158V1.5158Z" fill="#3AB7CC"/>
<path d="M31.6751 27.7958H10.2881C9.85715 27.7946 9.44419 27.6228 9.13945 27.3181C8.83471 27.0133 8.66284 26.6004 8.66162 26.1694V12.283C8.66162 11.8513 8.83278 11.4371 9.13765 11.1314C9.44252 10.8256 9.85635 10.6533 10.2881 10.652H31.6751C32.1069 10.6533 32.5205 10.8256 32.8253 11.1314C33.1302 11.4371 33.3014 11.8513 33.3014 12.283V26.1694C33.3001 26.6004 33.1285 27.0133 32.8238 27.3181C32.519 27.6228 32.1061 27.7946 31.6751 27.7958V27.7958ZM10.2881 12.2646V26.1694H31.6888V12.283L10.2881 12.2646Z" fill="#212529"/>
<path d="M23.5755 21.7879H17.8485C17.278 21.7884 16.7223 21.6063 16.2628 21.2683C15.8032 20.9302 15.4639 20.4539 15.2945 19.9092C15.1251 19.3644 15.1347 18.7797 15.3215 18.2407C15.5083 17.7016 15.8626 17.2366 16.3327 16.9134C16.368 16.2909 16.6401 15.7054 17.0933 15.277C17.5465 14.8487 18.1464 14.61 18.77 14.6098C18.9248 14.6088 19.0792 14.6242 19.2307 14.6559C19.6379 14.1794 20.1666 13.8224 20.7607 13.6228C21.3548 13.4231 21.992 13.3883 22.6043 13.5221C23.2166 13.6559 23.7809 13.9533 24.2375 14.3825C24.6942 14.8118 25.0259 15.3569 25.1972 15.9597C25.7817 16.3132 26.2345 16.8483 26.4863 17.4832C26.7381 18.1182 26.7751 18.8181 26.5918 19.4761C26.4085 20.1341 26.0148 20.714 25.471 21.1273C24.9272 21.5405 24.263 21.7645 23.58 21.7649L23.5755 21.7879ZM18.77 16.2592C18.6607 16.2592 18.5526 16.2808 18.4517 16.3227C18.3507 16.3647 18.259 16.4262 18.1819 16.5037C18.1049 16.5812 18.044 16.6731 18.0026 16.7743C17.9612 16.8754 17.9402 16.9838 17.9408 17.0931C17.9362 17.1437 17.9362 17.1946 17.9408 17.2451C17.9801 17.4328 17.9518 17.6283 17.8607 17.797C17.7696 17.9657 17.6216 18.0966 17.4431 18.1666C17.2133 18.2571 17.0224 18.4251 16.9032 18.6415C16.7841 18.8579 16.7443 19.1092 16.7907 19.3518C16.8372 19.5945 16.9668 19.8132 17.1574 19.9703C17.3481 20.1274 17.5878 20.213 17.8348 20.2122H23.5615C23.9632 20.211 24.3481 20.051 24.6321 19.7669C24.9161 19.4829 25.0761 19.0981 25.0773 18.6965C25.0779 18.4007 24.9908 18.1114 24.8267 17.8653C24.6627 17.6192 24.4291 17.4275 24.1559 17.3143C24.0342 17.2573 23.9285 17.1711 23.8481 17.0634C23.7677 16.9557 23.7151 16.8298 23.6951 16.6969C23.6233 16.2594 23.3988 15.8616 23.0614 15.5739C22.724 15.2863 22.2956 15.1276 21.8522 15.1258C21.5216 15.124 21.1968 15.2111 20.9114 15.3781C20.6261 15.5451 20.3908 15.7858 20.2305 16.0749C20.1276 16.2579 19.9571 16.3932 19.7556 16.4518C19.554 16.5103 19.3374 16.4875 19.1524 16.3882C19.0391 16.3089 18.9075 16.2598 18.77 16.2453V16.2592Z" fill="#212529"/>
<path d="M32.3798 25.0037H9.60144C9.3876 25.0037 9.18259 24.9188 9.03138 24.7676C8.88017 24.6164 8.79517 24.4113 8.79517 24.1974C8.79517 23.9836 8.88017 23.7785 9.03138 23.6273C9.18259 23.4761 9.3876 23.3912 9.60144 23.3912H32.403C32.6168 23.3912 32.8218 23.4761 32.9731 23.6273C33.1243 23.7785 33.2093 23.9836 33.2093 24.1974C33.2093 24.4113 33.1243 24.6164 32.9731 24.7676C32.8218 24.9188 32.6168 25.0037 32.403 25.0037H32.3798Z" fill="#212529"/>
<path d="M24.3677 31.348H17.5905C17.3766 31.348 17.1716 31.263 17.0204 31.1118C16.8692 30.9606 16.7842 30.7555 16.7842 30.5417C16.7842 30.3278 16.8692 30.1228 17.0204 29.9716C17.1716 29.8204 17.3766 29.7354 17.5905 29.7354H24.3677C24.5816 29.7354 24.7868 29.8204 24.938 29.9716C25.0892 30.1228 25.174 30.3278 25.174 30.5417C25.174 30.7555 25.0892 30.9606 24.938 31.1118C24.7868 31.263 24.5816 31.348 24.3677 31.348Z" fill="#212529"/>
<path d="M19.0926 31.3479C19.0391 31.355 18.9848 31.355 18.9313 31.3479C18.7218 31.3057 18.5377 31.182 18.4193 31.004C18.3009 30.826 18.258 30.6084 18.3001 30.3988L19.0143 26.8697C19.0613 26.6649 19.1863 26.4866 19.3628 26.3727C19.5393 26.2587 19.7533 26.2182 19.9592 26.2596C20.1651 26.301 20.3467 26.4212 20.4654 26.5945C20.584 26.7678 20.6303 26.9806 20.5945 27.1875L19.8804 30.7167C19.8398 30.8955 19.7398 31.0552 19.5968 31.1699C19.4537 31.2845 19.276 31.3473 19.0926 31.3479V31.3479Z" fill="#212529"/>
<path d="M22.8705 31.3479C22.6846 31.3464 22.505 31.281 22.3616 31.1627C22.2182 31.0445 22.1196 30.8805 22.0826 30.6983L21.3686 27.1737C21.3474 27.07 21.3469 26.9631 21.367 26.8591C21.3872 26.7551 21.4276 26.6561 21.486 26.5678C21.5444 26.4794 21.6196 26.4035 21.7074 26.3442C21.7951 26.2849 21.8936 26.2435 21.9974 26.2223C22.1011 26.2012 22.2081 26.2006 22.3121 26.2208C22.4161 26.2409 22.5151 26.2814 22.6034 26.3398C22.6918 26.3982 22.7678 26.4734 22.827 26.5611C22.8863 26.6489 22.9278 26.7475 22.949 26.8512L23.663 30.3804C23.7051 30.59 23.6621 30.8077 23.5438 30.9856C23.4254 31.1636 23.2413 31.2873 23.0318 31.3295C22.979 31.3425 22.9248 31.3487 22.8705 31.3479V31.3479Z" fill="#212529"/>
</svg>
